<svg id="Capa_1" enable-background="new 0 0 512 512" height="512" viewBox="0 0 512 512" width="512" xmlns="http://www.w3.org/2000/svg"><g><g><g><g><path d="m485.476 457.987h-305.758c-.739 0-147.549-.6-147.549-1.339v-344.568h454.645v344.568c-.001.74-.6 1.339-1.338 1.339z" fill="#acceff"/><path d="m486.813 112.08h-230.91l.097 345.907h229.476c.739 0 1.338-.6 1.338-1.339v-344.568z" fill="#73bcff"/></g><g><path d="m32.169 459.982v-253.258c0-.192.155-.348.347-.348h175.756l-.264 253.605h-175.839z" fill="#00429b"/><path d="m148.406 380.497c-8.277 0-14.987-6.718-14.987-15.005v-15.03c0-8.287 6.71-15.005 14.987-15.005s14.987 6.718 14.987 15.005v15.03c0 8.287-6.71 15.005-14.987 15.005z" fill="#00215a"/></g></g><g><path d="m496.732 512h-481.662c-8.277 0-15.021-5.197-15.021-11.881v-23.577c0-20.02 20.17-36.307 44.962-36.307h421.643c24.792 0 44.962 16.287 44.962 36.307v23.577c0 6.684-6.607 11.881-14.884 11.881z" fill="#0095ff"/><path d="m466.724 440.235h-210.821v71.765h240.829c8.277 0 14.954-5.197 14.954-11.881v-23.577c0-20.019-20.17-36.307-44.962-36.307z" fill="#006eff"/></g><g><g><g><path d="m448.8 180.438c-19.294 0-36.598-8.617-48.2-22.17-11.602 13.553-28.906 22.17-48.2 22.17s-36.598-8.617-48.2-22.17c-11.602 13.553-28.906 22.17-48.2 22.17s-36.598-8.617-48.2-22.17c-11.602 13.553-28.906 22.17-48.2 22.17s-36.598-8.617-48.2-22.17c-11.602 13.553-28.906 22.17-48.2 22.17-34.849 0-63.2-28.104-63.2-62.649v-22.873c0-8.294 6.716-15.018 15-15.018h482c8.284 0 15 6.724 15 15.018v22.872c0 34.546-28.351 62.65-63.2 62.65z" fill="#ff5c5c"/><path d="m497 79.898h-241.097v100.537c.033 0 .065.003.097.003 19.294 0 36.598-8.617 48.2-22.17 11.602 13.553 28.906 22.17 48.2 22.17s36.598-8.617 48.2-22.17c11.602 13.553 28.906 22.17 48.2 22.17 34.849 0 63.2-28.104 63.2-62.649v-22.873c0-8.294-6.716-15.018-15-15.018z" fill="#ff3838"/></g><g><path d="m208.008 79.898h-96.318v78.691c11.599 13.364 28.772 21.849 47.91 21.849 19.294 0 36.598-8.617 48.2-22.17.067.078.14.152.208.23z" fill="#ff3838"/><path d="m401.008 79.898h-96.318v78.912c11.596 13.234 28.68 21.627 47.71 21.627 19.294 0 36.598-8.617 48.2-22.17.132.154.274.299.408.451z" fill="#e20000"/></g></g><g><path d="m.049 94.896c-.234-2.879.363-6.622 1.794-9.241l42.588-77.851c2.632-4.812 7.676-7.804 13.156-7.804h399.836c5.643 0 10.809 3.171 13.369 8.207l39.565 77.852c1.407 2.768 1.899 5.854 1.494 8.837z" fill="#ff8b8b"/><path d="m470.792 8.207c-2.559-5.036-7.725-8.207-13.369-8.207h-201.52v94.896h255.949c.405-2.983-.087-6.068-1.494-8.837z" fill="#ff5c5c"/></g></g></g><g><path d="m316.611 363.603c-11.801 0-21.962-3.658-28.958-10.655-9.671-9.67-12.964-25.388-9.034-43.122 3.563-16.077 12.547-31.954 25.298-44.705s28.628-21.736 44.705-25.298c17.733-3.93 33.452-.637 43.122 9.034 9.671 9.671 12.964 25.388 9.034 43.122-3.563 16.077-12.547 31.954-25.298 44.705s-28.628 21.736-44.705 25.298c-4.904 1.086-9.654 1.621-14.164 1.621z" fill="#804231"/></g></g></svg>